Coordinates
version=1
nRows=65
nColumns=12
inDegrees=yes

Units are S.I. units (second, meters, Newtons, ...)
Angles are in degrees

endheader
time	SC_y	SC_z	SC_x	AC_y	AC_z	AC_x	GH_y	GH_z	GH_yy	EL_x	PS_y
       0.0              -14.43          14.53          22.21          58.76         -18.06          19.06          102.0         -11.81          -72.3          113.6          67.41
    0.0443              -14.43          14.52          22.21          58.76         -18.06          19.06          102.0         -11.79         -72.31          113.6          67.41
   0.08859              -14.44          14.52          22.21          58.76         -18.06          19.06          102.1         -11.78         -72.32          113.6          67.41
    0.1329              -14.45          14.52          22.21          58.75         -18.05          19.06          102.1         -11.77         -72.33          113.6           67.4
    0.1772              -14.45          14.52           22.2          58.75         -18.05          19.06          102.1         -11.75         -72.35          113.6           67.4
    0.2215              -14.46          14.51           22.2          58.75         -18.04          19.06          102.1         -11.73         -72.36          113.6           67.4
    0.2658              -14.47          14.51           22.2          58.74         -18.04          19.06          102.1         -11.72         -72.37          113.6           67.4
    0.3101              -14.48          14.51          22.19          58.74         -18.03          19.06          102.1          -11.7         -72.39          113.6          67.39
    0.3544              -14.49           14.5          22.19          58.73         -18.03          19.06          102.1         -11.68         -72.41          113.6          67.39
    0.3987               -14.5           14.5          22.18          58.73         -18.02          19.06          102.1         -11.66         -72.42          113.6          67.38
     0.443              -14.51           14.5          22.18          58.72         -18.02          19.06          102.2         -11.63         -72.44          113.6          67.38
    0.4873              -14.52          14.49          22.18          58.72         -18.01          19.06          102.2         -11.61         -72.46          113.6          67.38
    0.5316              -14.53          14.49          22.17          58.71          -18.0          19.06          102.2         -11.58         -72.48          113.6          67.37
    0.5759              -14.54          14.48          22.16          58.71         -17.99          19.06          102.2         -11.55         -72.51          113.6          67.37
    0.6202              -14.56          14.48          22.16           58.7         -17.99          19.06          102.2         -11.52         -72.53          113.6          67.36
    0.6645              -14.57          14.47          22.15          58.69         -17.98          19.06          102.3         -11.49         -72.56          113.6          67.35
    0.7088              -14.59          14.46          22.15          58.69         -17.97          19.06          102.3         -11.45         -72.59          113.6          67.35
    0.7531              -14.61          14.46          22.14          58.68         -17.96          19.06          102.3         -11.41         -72.62          113.6          67.34
    0.7973              -14.63          14.45          22.13          58.67         -17.94          19.06          102.3         -11.37         -72.66          113.6          67.33
    0.8416              -14.65          14.44          22.12          58.66         -17.93          19.06          102.4         -11.32          -72.7          113.6          67.32
    0.8859              -14.67          14.43          22.11          58.65         -17.92          19.06          102.4         -11.27         -72.74          113.6          67.31
    0.9302               -14.7          14.42           22.1          58.63          -17.9          19.06          102.4         -11.21         -72.79          113.6           67.3
    0.9745              -14.73          14.41          22.09          58.62         -17.88          19.06          102.5         -11.15         -72.84          113.6          67.29
     1.019              -14.76           14.4          22.07           58.6         -17.86          19.06          102.5         -11.08          -72.9          113.6          67.28
     1.063              -14.79          14.38          22.06          58.59         -17.84          19.05          102.6          -11.0         -72.96          113.6          67.26
     1.107              -14.83          14.37          22.04          58.57         -17.82          19.05          102.7         -10.91         -73.03          113.6          67.25
     1.152              -14.88          14.35          22.02          58.55         -17.79          19.05          102.7         -10.81         -73.11          113.6          67.23
     1.196              -14.93          14.33           22.0          58.52         -17.76          19.05          102.8          -10.7          -73.2          113.6          67.21
      1.24              -14.98          14.31          21.98           58.5         -17.73          19.05          102.9         -10.58          -73.3          113.6          67.19
     1.285              -15.05          14.28          21.95          58.47         -17.69          19.05          103.0         -10.44         -73.42          113.5          67.16
     1.329              -15.12          14.25          21.92          58.43         -17.64          19.05          103.1         -10.28         -73.55          113.5          67.13
     1.373               -15.2          14.22          21.88          58.39         -17.59          19.04          103.2         -10.09          -73.7          113.5          67.09
     1.418               -15.3          14.18          21.84          58.35         -17.53          19.04          103.4         -9.876         -73.88          113.5          67.06
     1.462              -15.41          14.13          21.79          58.29         -17.46          19.04          103.5         -9.627         -74.08          113.5          67.01
     1.506              -15.54          14.08          21.74          58.23         -17.38          19.04          103.7         -9.336         -74.32          113.5          66.96
      1.55               -15.7          14.02          21.67          58.16         -17.29          19.03          104.0         -8.993         -74.59          113.4          66.89
     1.595              -15.88          13.94          21.59          58.07         -17.18          19.03          104.3         -8.586         -74.93          113.4          66.82
     1.639               -16.1          13.86           21.5          57.96         -17.04          19.02          104.6         -8.097         -75.33          113.4          66.73
     1.683              -16.37          13.75          21.39          57.84         -16.88          19.02          105.0         -7.506         -75.81          113.3          66.62
     1.728              -16.69          13.62          21.25          57.68         -16.68          19.01          105.5         -6.784          -76.4          113.3          66.48
     1.772              -17.09          13.46          21.08          57.49         -16.44           19.0          106.1         -5.892         -77.12          113.2          66.32
     1.816              -17.59          13.26          20.86          57.25         -16.13          18.98          106.9         -4.781         -78.03          113.1          66.11
      1.86              -18.22           13.0          20.59          56.95         -15.75          18.97          107.9         -3.381         -79.17          113.0          65.85
     1.905              -19.02          12.68          20.25          56.57         -15.26          18.95          109.1         -1.601         -80.62          112.9          65.53
     1.949              -20.05          12.27          19.82          56.08         -14.63          18.92          110.7         0.6775         -82.48          112.7           65.1
     1.993              -21.37          11.74          19.25          55.45         -13.83          18.89          112.7          3.601         -84.86          112.5          64.56
     2.038              -23.05          11.06          18.54          54.65          -12.8          18.85          115.2          7.336         -87.91          112.2          63.87
     2.082              -25.16          10.21          17.63          53.64         -11.51           18.8          118.5          12.03         -91.73          111.8          63.01
     2.126              -27.74          9.179          16.54          52.41         -9.941          18.73          122.4          17.75          -96.4          111.4          61.95
     2.171              -30.73          7.979          15.26          50.98         -8.118          18.66          127.0          24.39         -101.8          110.8          60.72
     2.215              -33.96           6.68          13.88          49.44         -6.145          18.58          132.0          31.57         -107.7          110.3           59.4
     2.259               -37.2           5.38           12.5           47.9         -4.171           18.5          136.9          38.75         -113.5          109.7          58.07
     2.303              -40.18           4.18          11.23          46.47         -2.349          18.42          141.5          45.38         -118.9          109.2          56.84
     2.348              -42.76          3.145          10.13          45.24        -0.7761          18.36          145.5          51.11         -123.6          108.8          55.78
     2.392              -44.87          2.295          9.229          44.23         0.5142           18.3          148.7           55.8         -127.4          108.4          54.92
     2.436              -46.55           1.62          8.511          43.43           1.54          18.26          151.3          59.54         -130.5          108.1          54.23
     2.481              -47.87          1.091           7.95           42.8          2.344          18.23          153.3          62.46         -132.8          107.9          53.69
     2.525               -48.9         0.6784          7.512          42.31           2.97           18.2          154.9          64.74         -134.7          107.7          53.27
     2.569               -49.7         0.3564          7.171          41.93          3.459          18.18          156.1          66.52         -136.1          107.6          52.94
     2.614              -50.33         0.1031          6.902          41.63          3.844          18.17          157.1          67.92         -137.3          107.5          52.68
     2.658              -50.83       -0.09803          6.688          41.39          4.149          18.16          157.8          69.03         -138.2          107.4          52.47
     2.702              -51.23        -0.2593          6.517           41.2          4.394          18.15          158.4          69.92         -138.9          107.3          52.31
     2.746              -51.56          -0.39          6.378          41.04          4.592          18.14          158.9          70.64         -139.5          107.2          52.17
     2.791              -51.82        -0.4969          6.265          40.92          4.755          18.13          159.3          71.23         -140.0          107.2          52.06
     2.835              -52.04        -0.5853          6.171          40.81          4.889          18.13          159.7          71.72         -140.4          107.2          51.97
